<svg width="716" height="253" viewBox="0 0 716 253" fill="none" xmlns="http://www.w3.org/2000/svg">
<g clip-path="url(#clip0_1_16)">
<path d="M653.899 174.114C654.393 183.1 656.266 226.823 626.593 245.536C616.843 251.691 598.721 251.762 594.376 251.797C589.36 251.797 574.489 250.948 562.902 240.831C554.459 233.438 547.818 223.745 543.085 211.576C538.351 199.407 534.995 185.93 533.088 171.072C531.18 156.25 530.191 141.357 530.191 126.465C530.191 111.572 531.533 96.6084 534.253 81.9632C536.973 67.2827 541.212 53.9464 547.041 41.9544C552.87 29.9624 560.5 20.3405 569.932 13.124C579.363 5.90758 590.809 2.15786 604.232 2.26398C606.493 2.26398 617.62 2.33473 630.62 7.14569C639.592 10.5063 647.646 15.2465 654.782 21.3663C659.056 25.0453 662.695 29.1488 665.909 33.6414L667.04 32.7924C654.711 15.9186 632.457 0 599.781 0C579.681 0 566.894 3.14835 552.481 9.0913C537.751 15.1758 524.892 23.8072 513.942 34.9502C502.991 46.1286 494.442 59.4649 488.26 75.0298C482.114 90.5947 479.041 107.716 479.041 126.465C479.041 151.545 483.633 173.584 492.782 192.58C501.931 211.576 515.249 226.292 532.523 237.011C553.894 250.276 583.85 252.894 594.412 252.894C604.974 252.894 636.024 254.769 662.553 237.223C690.425 218.793 702.153 184.267 701.87 174.044H653.934L653.899 174.114Z" fill="black"/>
<path d="M716 172.452H639.734V174.221H716V172.452Z" fill="black"/>
<path d="M189.235 33.3584C182.842 22.6752 172.951 14.4329 159.492 8.66681C146.068 2.90073 128.794 0 107.67 0H89.6192V1.62724H103.608C111.167 1.62724 117.844 3.39597 123.602 7.78244C129.36 12.1689 134.129 17.935 137.908 25.0099C141.688 32.0849 144.549 39.6904 146.457 47.8266C148.364 55.9628 149.354 63.8514 149.354 71.4216C149.354 78.9918 148.4 86.7034 146.457 94.4859C144.549 102.304 141.688 109.556 137.908 116.277C134.129 122.998 129.36 128.41 123.602 132.478C117.844 136.546 111.167 138.315 103.608 138.315H89.6192V139.942H107.67C128.794 139.942 146.068 137.289 159.527 131.948C172.986 126.641 182.877 118.894 189.271 108.707C195.664 98.5186 198.844 86.0667 198.844 71.3862C198.844 56.7057 195.664 43.9708 189.271 33.2876L189.235 33.3584Z" fill="black"/>
<path d="M79.7989 251.231H0V253H79.7989V251.231Z" fill="black"/>
<path d="M60.2643 0H15.9669V252.186H60.2643V0Z" fill="black"/>
<path d="M248.263 0H246.497V252.611H248.263V0Z" fill="black"/>
<path d="M432.518 0.10614H430.752V252.929H432.518V0.10614Z" fill="black"/>
<path d="M431.705 252.929H384.052L247.31 0H294.927L431.705 252.929Z" fill="black"/>
</g>
<defs>
<clipPath id="clip0_1_16">
<rect width="716" height="253" fill="white"/>
</clipPath>
</defs>
</svg>
