<svg width="1440" height="800" viewBox="0 0 1440 800" fill="none" xmlns="http://www.w3.org/2000/svg">
<rect width="1440" height="800" fill="white"/>
<path d="M1279.16 489.389C1280.08 505.974 1283.54 586.681 1228.67 621.223C1210.64 632.584 1177.13 632.715 1169.1 632.78C1159.82 632.78 1132.32 631.213 1110.9 612.538C1095.29 598.891 1083 581 1074.25 558.538C1065.5 536.076 1059.29 511.198 1055.77 483.774C1052.24 456.414 1050.41 428.925 1050.41 401.435C1050.41 373.945 1052.89 346.325 1057.92 319.292C1062.95 292.194 1070.79 267.577 1081.57 245.442C1092.35 223.306 1106.46 205.545 1123.9 192.225C1141.34 178.905 1162.5 171.983 1187.32 172.179C1191.5 172.179 1212.08 172.31 1236.12 181.19C1252.71 187.393 1267.6 196.143 1280.8 207.439C1288.7 214.23 1295.43 221.804 1301.37 230.097L1303.46 228.53C1280.67 197.383 1239.51 168 1179.09 168C1141.92 168 1118.28 173.811 1091.63 184.781C1064.39 196.012 1040.61 211.944 1020.36 232.513C1000.11 253.147 984.304 277.763 972.873 306.494C961.507 335.224 955.824 366.828 955.824 401.435C955.824 447.73 964.316 488.41 981.234 523.474C998.152 558.538 1022.78 585.701 1054.72 605.486C1094.24 629.972 1149.63 634.804 1169.16 634.804C1188.69 634.804 1246.11 638.265 1295.17 605.878C1346.71 571.858 1368.39 508.129 1367.87 489.258H1279.23L1279.16 489.389Z" fill="white"/>
<path d="M1394 486.32H1252.97V489.585H1394V486.32Z" fill="white"/>
<path d="M427.306 229.575C415.483 209.855 397.193 194.641 372.305 183.998C347.483 173.354 315.541 168 276.479 168H243.099V171.004H268.967C282.945 171.004 295.291 174.268 305.939 182.365C316.586 190.462 325.404 201.105 332.394 214.165C339.383 227.224 344.674 241.263 348.202 256.281C351.729 271.299 353.558 285.86 353.558 299.833C353.558 313.807 351.794 328.042 348.202 342.407C344.674 356.837 339.383 370.223 332.394 382.629C325.404 395.036 316.586 405.026 305.939 412.535C295.291 420.044 282.945 423.309 268.967 423.309H243.099V426.313H276.479C315.541 426.313 347.483 421.415 372.371 411.556C397.258 401.761 415.548 387.461 427.371 368.656C439.194 349.851 445.073 326.866 445.073 299.768C445.073 272.67 439.194 249.163 427.371 229.444L427.306 229.575Z" fill="white"/>
<path d="M224.94 631.735H77.379V635H224.94V631.735Z" fill="white"/>
<path d="M188.817 168H106.904V633.498H188.817V168Z" fill="white"/>
<path d="M529.079 168H525.813V634.282H529.079V168Z" fill="white"/>
<path d="M869.796 168.196H866.53V634.869H869.796V168.196Z" fill="white"/>
<path d="M868.293 634.869H780.175L527.315 168H615.369L868.293 634.869Z" fill="white"/>
</svg>
