<svg width="1256" height="443" viewBox="0 0 1256 443" fill="none" xmlns="http://www.w3.org/2000/svg">
<g clip-path="url(#clip0_1_16)">
<path d="M1147.06 304.872C1147.93 320.605 1151.21 397.164 1099.16 429.931C1082.06 440.708 1050.27 440.832 1042.65 440.894C1033.85 440.894 1007.76 439.407 987.437 421.692C972.627 408.747 960.977 391.775 952.674 370.467C944.37 349.16 938.483 325.56 935.137 299.545C931.791 273.592 930.056 247.515 930.056 221.438C930.056 195.361 932.411 169.16 937.182 143.517C941.954 117.811 949.39 94.4596 959.614 73.4617C969.838 52.4638 983.223 35.6159 999.768 22.98C1016.31 10.3441 1036.39 3.77838 1059.94 3.96421C1063.9 3.96421 1083.42 4.08809 1106.23 12.512C1121.97 18.3964 1136.09 26.6964 1148.61 37.4122C1156.11 43.854 1162.49 51.0392 1168.13 58.9056L1170.11 57.419C1148.49 27.8733 1109.45 0 1052.13 0C1016.87 0 994.439 5.51272 969.157 15.9188C943.317 26.5726 920.761 41.6861 901.551 61.1974C882.342 80.7707 867.346 104.122 856.502 131.376C845.719 158.63 840.328 188.609 840.328 221.438C840.328 265.354 848.384 303.943 864.433 337.205C880.483 370.467 903.844 396.235 934.146 415.003C971.635 438.231 1024.18 442.814 1042.71 442.814C1061.24 442.814 1115.71 446.097 1162.24 415.374C1211.14 383.103 1231.71 322.649 1231.21 304.748H1147.12L1147.06 304.872Z" fill="white"/>
<path d="M1256 301.961H1122.21V305.058H1256V301.961Z" fill="white"/>
<path d="M331.955 58.4101C320.739 39.704 303.388 25.2718 279.779 15.1755C256.232 5.07914 225.93 0 188.874 0H157.209V2.84927H181.748C195.009 2.84927 206.72 5.94631 216.821 13.627C226.921 21.3076 235.287 31.4039 241.917 43.7921C248.548 56.1802 253.567 69.4975 256.913 83.7439C260.259 97.9902 261.995 111.803 261.995 125.058C261.995 138.314 260.321 151.817 256.913 165.444C253.567 179.133 248.548 191.83 241.917 203.599C235.287 215.368 226.921 224.845 216.821 231.968C206.72 239.091 195.009 242.188 181.748 242.188H157.209V245.037H188.874C225.93 245.037 256.232 240.392 279.841 231.039C303.45 221.748 320.801 208.183 332.017 190.344C343.233 172.505 348.81 150.702 348.81 124.996C348.81 99.291 343.233 76.9923 332.017 58.2862L331.955 58.4101Z" fill="white"/>
<path d="M139.982 439.903H0V443H139.982V439.903Z" fill="white"/>
<path d="M105.715 0H28.0089V441.575H105.715V0Z" fill="white"/>
<path d="M435.501 0H432.403V442.319H435.501V0Z" fill="white"/>
<path d="M758.718 0.185822H755.62V442.876H758.718V0.185822Z" fill="white"/>
<path d="M757.293 442.876H673.7L433.828 0H517.359L757.293 442.876Z" fill="white"/>
</g>
<defs>
<clipPath id="clip0_1_16">
<rect width="1256" height="443" fill="white"/>
</clipPath>
</defs>
</svg>
