<svg width="1406" height="497" viewBox="0 0 1406 497" fill="none" xmlns="http://www.w3.org/2000/svg">
<g clip-path="url(#clip0_1_16)">
<path d="M1284.05 342.035C1285.02 359.686 1288.7 445.577 1230.43 482.337C1211.29 494.429 1175.7 494.568 1167.17 494.637C1157.32 494.637 1128.12 492.97 1105.36 473.095C1088.78 458.571 1075.74 439.531 1066.45 415.626C1057.15 391.721 1050.56 365.245 1046.82 336.059C1043.07 306.942 1041.13 277.686 1041.13 248.431C1041.13 219.175 1043.77 189.78 1049.11 161.011C1054.45 132.172 1062.77 105.974 1074.22 82.4164C1085.66 58.8589 1100.65 39.9574 1119.17 25.7812C1137.69 11.605 1160.16 4.23895 1186.52 4.44743C1190.96 4.44743 1212.81 4.58641 1238.34 14.0372C1255.96 20.6388 1271.77 29.9506 1285.79 41.9726C1294.18 49.1997 1301.33 57.2606 1307.64 66.086L1309.86 64.4182C1285.65 31.271 1241.95 0 1177.78 0C1138.31 0 1113.2 6.1847 1084.9 17.8592C1055.97 29.8117 1030.72 46.7675 1009.22 68.6572C987.717 90.6163 970.93 116.814 958.791 147.391C946.721 177.967 940.686 211.6 940.686 248.431C940.686 297.7 949.704 340.993 967.67 378.309C985.636 415.626 1011.79 444.534 1045.71 465.59C1087.67 491.649 1146.5 496.792 1167.24 496.792C1187.98 496.792 1248.95 500.475 1301.05 466.007C1355.78 429.802 1378.81 361.979 1378.25 341.896H1284.12L1284.05 342.035Z" fill="white"/>
<path d="M1406 338.769H1256.24V342.243H1406V338.769Z" fill="white"/>
<path d="M371.599 65.5301C359.044 44.5438 339.621 28.3524 313.192 17.0253C286.833 5.69827 252.912 0 211.431 0H175.984V3.19659H203.453C218.298 3.19659 231.408 6.67114 242.715 15.288C254.022 23.9049 263.387 35.232 270.809 49.1302C278.231 63.0284 283.85 77.969 287.596 93.9519C291.341 109.935 293.284 125.431 293.284 140.302C293.284 155.174 291.411 170.323 287.596 185.611C283.85 200.968 278.231 215.214 270.809 228.417C263.387 241.62 254.022 252.253 242.715 260.244C231.408 268.235 218.298 271.71 203.453 271.71H175.984V274.907H211.431C252.912 274.907 286.833 269.695 313.261 259.202C339.69 248.778 359.113 233.559 371.668 213.546C384.224 193.533 390.467 169.072 390.467 140.233C390.467 111.394 384.224 86.3774 371.668 65.3911L371.599 65.5301Z" fill="white"/>
<path d="M156.7 493.525H0V497H156.7V493.525Z" fill="white"/>
<path d="M118.34 0H31.3539V495.402H118.34V0Z" fill="white"/>
<path d="M487.511 0H484.043V496.236H487.511V0Z" fill="white"/>
<path d="M849.33 0.208466H845.861V496.861H849.33V0.208466Z" fill="white"/>
<path d="M847.734 496.861H754.158L485.638 0H579.145L847.734 496.861Z" fill="white"/>
</g>
<defs>
<clipPath id="clip0_1_16">
<rect width="1406" height="497" fill="white"/>
</clipPath>
</defs>
</svg>
